<svg width="44" height="45" viewBox="0 0 44 45" fill="none" xmlns="http://www.w3.org/2000/svg">
<g clip-path="url(#clip0_1_234)">
<path d="M1.46454 15.085L5.71454 7.72503C6.15454 6.96503 7.13454 6.70003 7.89454 7.14003L10.8945 8.87003C12.4495 7.55003 14.2445 6.50503 16.1995 5.80003V2.34503C16.1995 1.46503 16.9195 0.750031 17.7945 0.750031H26.2995C27.1745 0.750031 27.8945 1.46503 27.8945 2.34503V5.80003C29.8495 6.50503 31.6445 7.55003 33.1995 8.87003L36.1995 7.14003C36.9595 6.70003 37.9395 6.96503 38.3795 7.72503L42.6295 15.09C43.0695 15.85 42.8045 16.835 42.0445 17.27L39.0495 19C39.2245 19.995 39.3195 21.02 39.3195 22.065C39.3195 23.11 39.2245 24.135 39.0495 25.13L42.0445 26.86C42.8045 27.3 43.0695 28.28 42.6295 29.04L38.3795 36.405C37.9395 37.165 36.9595 37.425 36.1995 36.99L33.1995 35.26C31.6445 36.575 29.8495 37.625 27.8945 38.325V41.785C27.8945 42.66 27.1745 43.38 26.2995 43.38H17.7945C16.9195 43.38 16.1995 42.66 16.1995 41.785V38.325C14.2445 37.625 12.4495 36.575 10.8945 35.26L7.89454 36.99C7.13454 37.425 6.15454 37.165 5.71454 36.405L1.46454 29.035C1.02454 28.275 1.28954 27.295 2.04954 26.855L5.04454 25.125C4.86954 24.13 4.77454 23.105 4.77454 22.06C4.77454 21.015 4.86954 19.99 5.04454 18.995L2.04954 17.265C1.28954 16.83 1.02454 15.845 1.46454 15.085Z" stroke="#2F3132" stroke-width="2" stroke-linecap="round" stroke-linejoin="round"/>
<path d="M22.0448 8.63992C29.4598 8.63992 35.4698 14.6499 35.4698 22.0599C35.4698 29.4699 29.4598 35.4849 22.0448 35.4849C14.6298 35.4849 8.62476 29.4749 8.62476 22.0599C8.62476 14.6499 14.6348 8.63992 22.0448 8.63992Z" stroke="#08BA76" stroke-width="2" stroke-linecap="round" stroke-linejoin="round"/>
<path d="M23.2743 18.6701C21.7843 19.5251 19.6593 21.7351 19.5193 25.4001C22.7793 27.0851 25.7493 26.3301 27.2293 25.4551C28.7193 24.6001 30.8443 22.3901 30.9843 18.7201C27.7243 17.0351 24.7543 17.7951 23.2743 18.6701Z" stroke="#08BA76" stroke-width="2" stroke-linecap="round" stroke-linejoin="round"/>
<path d="M19.5201 25.3999C18.1451 25.4249 17.0001 25.0299 16.2751 24.5999C15.0201 23.8799 13.2301 22.0149 13.1101 18.9299C15.8551 17.5099 18.3601 18.1499 19.6051 18.8849C20.1351 19.1899 20.7551 19.6949 21.3101 20.4099" stroke="#08BA76" stroke-width="2" stroke-linecap="round" stroke-linejoin="round"/>
<path d="M19.5196 25.3999C18.9246 28.2399 19.3246 31.5749 22.0196 35.4649" stroke="#08BA76" stroke-width="2" stroke-linecap="round" stroke-linejoin="round"/>
<path d="M19.5193 25.4001L25.2543 22.0601" stroke="#08BA76" stroke-width="2" stroke-linecap="round" stroke-linejoin="round"/>
</g>
<defs>
<clipPath id="clip0_1_234">
<rect width="43.095" height="44.125" fill="white" transform="translate(0.499756 3.05176e-05)"/>
</clipPath>
</defs>
</svg>
