<svg width="38" height="47" viewBox="0 0 38 47" fill="none" xmlns="http://www.w3.org/2000/svg">
<g clip-path="url(#clip0_1_210)">
<path d="M19.5393 14.2697V1.74453C19.5393 1.49988 19.7411 1.29778 19.9854 1.29778H23.0178C23.2621 1.29778 23.464 1.49988 23.464 1.74453V16.1471" stroke="#2F3132" stroke-width="2" stroke-linecap="round" stroke-linejoin="round"/>
<path d="M12.7628 11.0254V1.74453C12.7628 1.49988 12.9646 1.29778 13.2089 1.29778H16.2413C16.4856 1.29778 16.6874 1.49988 16.6874 1.74453V12.9028" stroke="#2F3132" stroke-width="2" stroke-linecap="round" stroke-linejoin="round"/>
<path d="M1.29688 11.7062V6.9567C1.29688 6.2972 1.98196 5.8664 2.57146 6.14828L26.0662 17.3917C26.2043 17.4555 26.3211 17.5565 26.4061 17.6789" stroke="#2F3132" stroke-width="2" stroke-linecap="round" stroke-linejoin="round"/>
<path d="M24.8872 32.7622H2.18908C1.69518 32.7622 1.29688 32.3633 1.29688 31.8687V14.3867" stroke="#2F3132" stroke-width="2" stroke-linecap="round" stroke-linejoin="round"/>
<path d="M1.7005 19.3967H13.5647" stroke="#2F3132" stroke-width="2" stroke-linecap="round" stroke-linejoin="round"/>
<path d="M1.7005 23.4654H13.5647" stroke="#2F3132" stroke-width="2" stroke-linecap="round" stroke-linejoin="round"/>
<path d="M1.7005 27.5394H13.5647" stroke="#2F3132" stroke-width="2" stroke-linecap="round" stroke-linejoin="round"/>
<path d="M12.7628 4.82928H16.6874" stroke="#2F3132" stroke-width="2" stroke-linecap="round" stroke-linejoin="round"/>
<path d="M16.6874 8.04167H12.7628" stroke="#2F3132" stroke-width="2" stroke-linecap="round" stroke-linejoin="round"/>
<path d="M19.5393 4.82928H23.4693" stroke="#2F3132" stroke-width="2" stroke-linecap="round" stroke-linejoin="round"/>
<path d="M23.4693 8.04167H19.5393" stroke="#2F3132" stroke-width="2" stroke-linecap="round" stroke-linejoin="round"/>
<path d="M35.8539 45.7022H23.687C23.2197 45.7022 22.8426 45.3246 22.8426 44.8566V37.7085C22.8426 37.2404 23.2197 36.8628 23.687 36.8628H35.8539C36.3213 36.8628 36.6983 37.2404 36.6983 37.7085V44.8566C36.6983 45.3246 36.3213 45.7022 35.8539 45.7022Z" stroke="#08BA76" stroke-width="2" stroke-linecap="round" stroke-linejoin="round"/>
<path d="M34.6006 30.9167V25.997C34.6006 25.529 34.2236 25.1514 33.7562 25.1514H25.7954C25.3281 25.1514 24.951 25.529 24.951 25.997V36.8628H34.6059V33.5972" stroke="#08BA76" stroke-width="2" stroke-linecap="round" stroke-linejoin="round"/>
<path d="M26.4061 25.1514V14.5994C26.4061 13.9293 27.1496 13.5251 27.7126 13.8867L32.7578 17.1523C32.9968 17.3066 33.1455 17.5778 33.1455 17.865V25.1514H26.4114H26.4061Z" stroke="#08BA76" stroke-width="2" stroke-linecap="round" stroke-linejoin="round"/>
</g>
<defs>
<clipPath id="clip0_1_210">
<rect width="37" height="46" fill="white" transform="translate(0.500244 0.5)"/>
</clipPath>
</defs>
</svg>
